<mxfile host="65bd71144e">
    <diagram id="u6mARD2z6hc0mRG2zNkf" name="Page-1">
        <mxGraphModel dx="1375" dy="878" grid="1" gridSize="10" guides="1" tooltips="1" connect="1" arrows="1" fold="1" page="1" pageScale="1" pageWidth="850" pageHeight="1100" math="0" shadow="0">
            <root>
                <mxCell id="0"/>
                <mxCell id="1" parent="0"/>
                <mxCell id="2" value="ALEcuaFauna 2K24A" style="shape=umlFrame;whiteSpace=wrap;html=1;width=150;height=60;boundedLbl=1;verticalAlign=middle;align=left;spacingLeft=5;hachureGap=4;fontFamily=Helvetica;fontSize=20;fontStyle=0" parent="1" vertex="1">
                    <mxGeometry x="150" y="170" width="520" height="710" as="geometry"/>
                </mxCell>
                <mxCell id="3" style="edgeStyle=none;hachureGap=4;html=1;fontFamily=Helvetica;fontSize=16;entryX=1;entryY=0.5;entryDx=0;entryDy=0;" parent="1" source="6" target="10" edge="1">
                    <mxGeometry relative="1" as="geometry">
                        <Array as="points"/>
                        <mxPoint x="594.9718172825217" y="323.71254822299215" as="targetPoint"/>
                    </mxGeometry>
                </mxCell>
                <mxCell id="29" style="edgeStyle=none;html=1;entryX=1;entryY=0.5;entryDx=0;entryDy=0;" parent="1" source="6" target="28" edge="1">
                    <mxGeometry relative="1" as="geometry"/>
                </mxCell>
                <mxCell id="32" style="edgeStyle=none;html=1;entryX=1;entryY=0.5;entryDx=0;entryDy=0;" edge="1" parent="1" source="6" target="30">
                    <mxGeometry relative="1" as="geometry"/>
                </mxCell>
                <mxCell id="37" style="edgeStyle=none;html=1;entryX=1;entryY=0.5;entryDx=0;entryDy=0;" edge="1" parent="1" source="6" target="26">
                    <mxGeometry relative="1" as="geometry"/>
                </mxCell>
                <mxCell id="38" style="edgeStyle=none;html=1;entryX=1;entryY=0.5;entryDx=0;entryDy=0;" edge="1" parent="1" source="6" target="31">
                    <mxGeometry relative="1" as="geometry"/>
                </mxCell>
                <mxCell id="6" value="Sistema" style="shape=umlActor;verticalLabelPosition=bottom;verticalAlign=top;html=1;hachureGap=4;fontFamily=Helvetica;fontSize=20;" parent="1" vertex="1">
                    <mxGeometry x="760" y="290" width="30" height="60" as="geometry"/>
                </mxCell>
                <mxCell id="8" style="edgeStyle=none;hachureGap=4;html=1;entryX=0;entryY=0.5;entryDx=0;entryDy=0;fontFamily=Helvetica;fontSize=16;" parent="1" source="9" target="10" edge="1">
                    <mxGeometry relative="1" as="geometry"/>
                </mxCell>
                <mxCell id="33" style="edgeStyle=none;html=1;entryX=0.022;entryY=0.344;entryDx=0;entryDy=0;entryPerimeter=0;" edge="1" parent="1" source="9" target="26">
                    <mxGeometry relative="1" as="geometry"/>
                </mxCell>
                <mxCell id="34" style="edgeStyle=none;html=1;entryX=0;entryY=0.5;entryDx=0;entryDy=0;" edge="1" parent="1" source="9" target="30">
                    <mxGeometry relative="1" as="geometry"/>
                </mxCell>
                <mxCell id="35" style="edgeStyle=none;html=1;entryX=0;entryY=0.5;entryDx=0;entryDy=0;" edge="1" parent="1" source="9" target="28">
                    <mxGeometry relative="1" as="geometry">
                        <mxPoint x="80" y="330" as="targetPoint"/>
                    </mxGeometry>
                </mxCell>
                <mxCell id="36" style="edgeStyle=none;html=1;entryX=0.025;entryY=0.384;entryDx=0;entryDy=0;entryPerimeter=0;" edge="1" parent="1" source="9" target="31">
                    <mxGeometry relative="1" as="geometry"/>
                </mxCell>
                <mxCell id="9" value="Usuario" style="shape=umlActor;verticalLabelPosition=bottom;verticalAlign=top;html=1;hachureGap=4;fontFamily=Helvetica;fontSize=20;" parent="1" vertex="1">
                    <mxGeometry x="40" y="290" width="30" height="60" as="geometry"/>
                </mxCell>
                <mxCell id="10" value="Crear Hormigas larvas" style="ellipse;whiteSpace=wrap;html=1;hachureGap=4;fontFamily=Helvetica;fontSize=20;" parent="1" vertex="1">
                    <mxGeometry x="270" y="275" width="170" height="90" as="geometry"/>
                </mxCell>
                <mxCell id="26" value="Alimimentar con Ingesta Nativa" style="ellipse;whiteSpace=wrap;html=1;hachureGap=4;fontFamily=Helvetica;fontSize=20;" parent="1" vertex="1">
                    <mxGeometry x="255" y="540" width="170" height="90" as="geometry"/>
                </mxCell>
                <mxCell id="28" value="&amp;nbsp;Gruardar Hormigas&lt;span style=&quot;color: rgba(0, 0, 0, 0); font-family: monospace; font-size: 0px; text-align: start;&quot;&gt;%3CmxGraphModel%3E%3Croot%3E%3CmxCell%20id%3D%220%22%2F%3E%3CmxCell%20id%3D%221%22%20parent%3D%220%22%2F%3E%3CmxCell%20id%3D%222%22%20value%3D%22Eliminar%20Hormigas%22%20style%3D%22ellipse%3BwhiteSpace%3Dwrap%3Bhtml%3D1%3BhachureGap%3D4%3BfontFamily%3DHelvetica%3BfontSize%3D20%3B%22%20vertex%3D%221%22%20parent%3D%221%22%3E%3CmxGeometry%20x%3D%22230%22%20y%3D%22440%22%20width%3D%22170%22%20height%3D%2290%22%20as%3D%22geometry%22%2F%3E%3C%2FmxCell%3E%3C%2Froot%3E%3C%2FmxGraphModel%3E&lt;/span&gt;" style="ellipse;whiteSpace=wrap;html=1;hachureGap=4;fontFamily=Helvetica;fontSize=20;" parent="1" vertex="1">
                    <mxGeometry x="270" y="660" width="170" height="90" as="geometry"/>
                </mxCell>
                <mxCell id="30" value="Alimentar con GenoAlimento" style="ellipse;whiteSpace=wrap;html=1;hachureGap=4;fontFamily=Helvetica;fontSize=20;" vertex="1" parent="1">
                    <mxGeometry x="270" y="390" width="170" height="110" as="geometry"/>
                </mxCell>
                <mxCell id="31" value="Eliminar Hormigas" style="ellipse;whiteSpace=wrap;html=1;hachureGap=4;fontFamily=Helvetica;fontSize=20;" vertex="1" parent="1">
                    <mxGeometry x="280" y="770" width="170" height="90" as="geometry"/>
                </mxCell>
            </root>
        </mxGraphModel>
    </diagram>
</mxfile>